<?xml version="1.0" encoding="UTF-8" standalone="no"?><svg xmlns="http://www.w3.org/2000/svg" xmlns:xlink="http://www.w3.org/1999/xlink" contentScriptType="application/ecmascript" contentStyleType="text/css" height="271px" preserveAspectRatio="none" style="width:255px;height:271px;" version="1.1" viewBox="0 0 255 271" width="255px" zoomAndPan="magnify"><defs><filter height="300%" id="f5wpjvt9znd98" width="300%" x="-1" y="-1"><feGaussianBlur result="blurOut" stdDeviation="2.0"/><feColorMatrix in="blurOut" result="blurOut2" type="matrix" values="0 0 0 0 0 0 0 0 0 0 0 0 0 0 0 0 0 0 .4 0"/><feOffset dx="4.0" dy="4.0" in="blurOut2" result="blurOut3"/><feBlend in="SourceGraphic" in2="blurOut3" mode="normal"/></filter></defs><g><!--MD5=[22fb4e6350dbcc13f4be459709017985]
class Ellipse--><rect fill="#FEFECE" filter="url(#f5wpjvt9znd98)" height="112.0234" id="Ellipse" style="stroke: #A80036; stroke-width: 1.5;" width="229" x="7" y="7"/><ellipse cx="97.75" cy="23" fill="#ADD1B2" rx="11" ry="11" style="stroke: #A80036; stroke-width: 1.0;"/><path d="M100.0938,18.6719 C99.1563,18.2344 98.5625,18.0938 97.6875,18.0938 C95.0625,18.0938 93.0625,20.1719 93.0625,22.8906 L93.0625,24.0156 C93.0625,26.5938 95.1719,28.4844 98.0625,28.4844 C99.2813,28.4844 100.4375,28.1875 101.1875,27.6406 C101.7656,27.2344 102.0938,26.7813 102.0938,26.3906 C102.0938,25.9375 101.7031,25.5469 101.2344,25.5469 C101.0156,25.5469 100.8125,25.625 100.625,25.8125 C100.1719,26.2969 100.1719,26.2969 99.9844,26.3906 C99.5625,26.6563 98.875,26.7813 98.1094,26.7813 C96.0625,26.7813 94.7656,25.6875 94.7656,23.9844 L94.7656,22.8906 C94.7656,21.1094 96.0156,19.7969 97.75,19.7969 C98.3281,19.7969 98.9375,19.9531 99.4063,20.2031 C99.8906,20.4844 100.0625,20.7031 100.1563,21.1094 C100.2188,21.5156 100.25,21.6406 100.3906,21.7656 C100.5313,21.9063 100.7656,22.0156 100.9844,22.0156 C101.25,22.0156 101.5156,21.875 101.6875,21.6563 C101.7969,21.5 101.8281,21.3125 101.8281,20.8906 L101.8281,19.4688 C101.8281,19.0313 101.8125,18.9063 101.7188,18.75 C101.5625,18.4844 101.2813,18.3438 100.9844,18.3438 C100.6875,18.3438 100.4844,18.4375 100.2656,18.75 L100.0938,18.6719 Z "/><text fill="#000000" font-family="sans-serif" font-size="12" lengthAdjust="spacingAndGlyphs" textLength="39" x="118.25" y="27.1543">Ellipse</text><line style="stroke: #A80036; stroke-width: 1.5;" x1="8" x2="235" y1="39" y2="39"/><ellipse cx="18" cy="50" fill="none" rx="3" ry="3" style="stroke: #038048; stroke-width: 1.0;"/><text fill="#000000" font-family="sans-serif" font-size="11" lengthAdjust="spacingAndGlyphs" textLength="58" x="27" y="53.2104">a: number</text><ellipse cx="18" cy="62.8047" fill="none" rx="3" ry="3" style="stroke: #038048; stroke-width: 1.0;"/><text fill="#000000" font-family="sans-serif" font-size="11" lengthAdjust="spacingAndGlyphs" textLength="58" x="27" y="66.0151">b: number</text><ellipse cx="18" cy="75.6094" fill="none" rx="3" ry="3" style="stroke: #038048; stroke-width: 1.0;"/><text fill="#000000" font-family="sans-serif" font-size="11" lengthAdjust="spacingAndGlyphs" textLength="147" x="27" y="78.8198">area: number {readOnly}</text><ellipse cx="18" cy="88.4141" fill="none" rx="3" ry="3" style="stroke: #038048; stroke-width: 1.0;"/><text fill="#000000" font-family="sans-serif" font-size="11" lengthAdjust="spacingAndGlyphs" textLength="203" x="27" y="91.6245">circumference: number {readOnly}</text><line style="stroke: #A80036; stroke-width: 1.5;" x1="8" x2="235" y1="98.2188" y2="98.2188"/><ellipse cx="18" cy="109.2188" fill="#84BE84" rx="3" ry="3" style="stroke: #038048; stroke-width: 1.0;"/><text fill="#000000" font-family="sans-serif" font-size="11" lengthAdjust="spacingAndGlyphs" textLength="90" x="27" y="112.4292">toString(): string</text><!--MD5=[a7f9118cae7621dd25d25149752faef0]
class Circle--><rect fill="#FEFECE" filter="url(#f5wpjvt9znd98)" height="73.6094" id="Circle" style="stroke: #A80036; stroke-width: 1.5;" width="116" x="63.5" y="179"/><ellipse cx="101" cy="195" fill="#ADD1B2" rx="11" ry="11" style="stroke: #A80036; stroke-width: 1.0;"/><path d="M103.3438,190.6719 C102.4063,190.2344 101.8125,190.0938 100.9375,190.0938 C98.3125,190.0938 96.3125,192.1719 96.3125,194.8906 L96.3125,196.0156 C96.3125,198.5938 98.4219,200.4844 101.3125,200.4844 C102.5313,200.4844 103.6875,200.1875 104.4375,199.6406 C105.0156,199.2344 105.3438,198.7813 105.3438,198.3906 C105.3438,197.9375 104.9531,197.5469 104.4844,197.5469 C104.2656,197.5469 104.0625,197.625 103.875,197.8125 C103.4219,198.2969 103.4219,198.2969 103.2344,198.3906 C102.8125,198.6563 102.125,198.7813 101.3594,198.7813 C99.3125,198.7813 98.0156,197.6875 98.0156,195.9844 L98.0156,194.8906 C98.0156,193.1094 99.2656,191.7969 101,191.7969 C101.5781,191.7969 102.1875,191.9531 102.6563,192.2031 C103.1406,192.4844 103.3125,192.7031 103.4063,193.1094 C103.4688,193.5156 103.5,193.6406 103.6406,193.7656 C103.7813,193.9063 104.0156,194.0156 104.2344,194.0156 C104.5,194.0156 104.7656,193.875 104.9375,193.6563 C105.0469,193.5 105.0781,193.3125 105.0781,192.8906 L105.0781,191.4688 C105.0781,191.0313 105.0625,190.9063 104.9688,190.75 C104.8125,190.4844 104.5313,190.3438 104.2344,190.3438 C103.9375,190.3438 103.7344,190.4375 103.5156,190.75 L103.3438,190.6719 Z "/><text fill="#000000" font-family="sans-serif" font-size="12" lengthAdjust="spacingAndGlyphs" textLength="34" x="120" y="199.1543">Circle</text><line style="stroke: #A80036; stroke-width: 1.5;" x1="64.5" x2="178.5" y1="211" y2="211"/><ellipse cx="74.5" cy="222" fill="none" rx="3" ry="3" style="stroke: #038048; stroke-width: 1.0;"/><text fill="#000000" font-family="sans-serif" font-size="11" lengthAdjust="spacingAndGlyphs" textLength="85" x="83.5" y="225.2104">radius: number</text><line style="stroke: #A80036; stroke-width: 1.5;" x1="64.5" x2="178.5" y1="231.8047" y2="231.8047"/><ellipse cx="74.5" cy="242.8047" fill="#84BE84" rx="3" ry="3" style="stroke: #038048; stroke-width: 1.0;"/><text fill="#000000" font-family="sans-serif" font-size="11" lengthAdjust="spacingAndGlyphs" textLength="90" x="83.5" y="246.0151">toString(): string</text><!--MD5=[2824345f5a189d04984162a0e78db7c1]
reverse link Ellipse to Circle--><path d="M121.5,139.838 C121.5,153.4689 121.5,167.0853 121.5,178.9097 " fill="none" id="Ellipse&lt;-Circle" style="stroke: #A80036; stroke-width: 1.0;"/><polygon fill="none" points="114.5,139.369,121.5,119.369,128.5,139.369,114.5,139.369" style="stroke: #A80036; stroke-width: 1.0;"/><!--MD5=[e274131f8b1cdf7297aad804b8ac62ba]
@startuml
class Ellipse {
  +a: number
  +b: number
  +area: number {readOnly}
  +circumference: number {readOnly}
  +toString(): string
}

class Circle extends Ellipse {
  +radius: number
  +toString(): string
}
@enduml

PlantUML version 1.2020.13(Sat Jun 13 12:26:38 UTC 2020)
(GPL source distribution)
Java Runtime: Java(TM) SE Runtime Environment
JVM: Java HotSpot(TM) 64-Bit Server VM
Default Encoding: UTF-8
Language: en
Country: US
--></g></svg>