<?xml version="1.0" encoding="UTF-8" standalone="no"?>
<!DOCTYPE svg PUBLIC "-//W3C//DTD SVG 1.1//EN"
 "http://www.w3.org/Graphics/SVG/1.1/DTD/svg11.dtd">
<!-- Generated by graphviz version 2.38.0 (20140413.2041)
 -->
<!-- Title: dependency&#45;cruiser output Pages: 1 -->
<svg width="250pt" height="166pt"
 viewBox="0.00 0.00 250.00 166.00" xmlns="http://www.w3.org/2000/svg" xmlns:xlink="http://www.w3.org/1999/xlink">
<g id="graph0" class="graph" transform="scale(1 1) rotate(0) translate(4 162)">
<title>dependency&#45;cruiser output</title>
<g id="clust1" class="cluster"><title>cluster_src</title>
<path fill="#ffffff" stroke="black" stroke-width="2" d="M29,-98C29,-98 222,-98 222,-98 228,-98 234,-104 234,-110 234,-110 234,-138 234,-138 234,-144 228,-150 222,-150 222,-150 29,-150 29,-150 23,-150 17,-144 17,-138 17,-138 17,-110 17,-110 17,-104 23,-98 29,-98"/>
<text text-anchor="middle" x="125.5" y="-138.8" font-family="Helvetica,sans-Serif" font-weight="bold" font-size="9.00">src</text>
</g>
<g id="clust2" class="cluster"><title>cluster_test</title>
<path fill="#ffffff" stroke="black" stroke-width="2" d="M20,-8C20,-8 84,-8 84,-8 90,-8 96,-14 96,-20 96,-20 96,-78 96,-78 96,-84 90,-90 84,-90 84,-90 20,-90 20,-90 14,-90 8,-84 8,-78 8,-78 8,-20 8,-20 8,-14 14,-8 20,-8"/>
<text text-anchor="middle" x="52" y="-78.8" font-family="Helvetica,sans-Serif" font-weight="bold" font-size="9.00">test</text>
</g>
<!-- src/Circle.js -->
<g id="node1" class="node"><title>src/Circle.js</title>
<g id="a_node1"><a xlink:href="src/Circle.js" xlink:title="Circle.js">
<path fill="#ffffcc" stroke="black" d="M152,-124C152,-124 110,-124 110,-124 107,-124 104,-121 104,-118 104,-118 104,-112 104,-112 104,-109 107,-106 110,-106 110,-106 152,-106 152,-106 155,-106 158,-109 158,-112 158,-112 158,-118 158,-118 158,-121 155,-124 152,-124"/>
<text text-anchor="middle" x="131" y="-112.8" font-family="Helvetica,sans-Serif" font-size="9.00">Circle.js</text>
</a>
</g>
</g>
<!-- src/Ellipse.js -->
<g id="node2" class="node"><title>src/Ellipse.js</title>
<g id="a_node2"><a xlink:href="src/Ellipse.js" xlink:title="Ellipse.js">
<path fill="#ffffcc" stroke="black" d="M220,-124C220,-124 177,-124 177,-124 174,-124 171,-121 171,-118 171,-118 171,-112 171,-112 171,-109 174,-106 177,-106 177,-106 220,-106 220,-106 223,-106 226,-109 226,-112 226,-112 226,-118 226,-118 226,-121 223,-124 220,-124"/>
<text text-anchor="middle" x="198.5" y="-112.8" font-family="Helvetica,sans-Serif" font-size="9.00">Ellipse.js</text>
</a>
</g>
</g>
<!-- src/Circle.js&#45;&gt;src/Ellipse.js -->
<g id="edge1" class="edge"><title>src/Circle.js&#45;&gt;src/Ellipse.js</title>
<path fill="none" stroke="#999999" d="M158.264,-115C160.715,-115 163.217,-115 165.712,-115"/>
<polygon fill="#999999" stroke="#999999" points="165.803,-116.75 170.803,-115 165.803,-113.25 165.803,-116.75"/>
</g>
<!-- src/app.js -->
<g id="node3" class="node"><title>src/app.js</title>
<g id="a_node3"><a xlink:href="src/app.js" xlink:title="app.js">
<path fill="#ffffcc" stroke="black" d="M73,-124C73,-124 31,-124 31,-124 28,-124 25,-121 25,-118 25,-118 25,-112 25,-112 25,-109 28,-106 31,-106 31,-106 73,-106 73,-106 76,-106 79,-109 79,-112 79,-112 79,-118 79,-118 79,-121 76,-124 73,-124"/>
<text text-anchor="middle" x="52" y="-112.8" font-family="Helvetica,sans-Serif" font-size="9.00">app.js</text>
</a>
</g>
</g>
<!-- src/app.js&#45;&gt;src/Circle.js -->
<g id="edge2" class="edge"><title>src/app.js&#45;&gt;src/Circle.js</title>
<path fill="none" stroke="#999999" d="M79.0687,-115C85.3404,-115 92.1052,-115 98.5918,-115"/>
<polygon fill="#999999" stroke="#999999" points="98.9582,-116.75 103.958,-115 98.9581,-113.25 98.9582,-116.75"/>
</g>
<!-- test/Circle.test.js -->
<g id="node4" class="node"><title>test/Circle.test.js</title>
<g id="a_node4"><a xlink:href="test/Circle.test.js" xlink:title="Circle.test.js">
<path fill="#ffffcc" stroke="black" d="M80,-64C80,-64 24,-64 24,-64 21,-64 18,-61 18,-58 18,-58 18,-52 18,-52 18,-49 21,-46 24,-46 24,-46 80,-46 80,-46 83,-46 86,-49 86,-52 86,-52 86,-58 86,-58 86,-61 83,-64 80,-64"/>
<text text-anchor="middle" x="52" y="-52.8" font-family="Helvetica,sans-Serif" font-size="9.00">Circle.test.js</text>
</a>
</g>
</g>
<!-- test/Circle.test.js&#45;&gt;src/Circle.js -->
<g id="edge3" class="edge"><title>test/Circle.test.js&#45;&gt;src/Circle.js</title>
<path fill="none" stroke="#999999" d="M64.6946,-64.1127C78.0004,-74.4808 99.786,-91.4566 114.498,-102.921"/>
<polygon fill="#999999" stroke="#999999" points="113.428,-104.305 118.448,-105.998 115.579,-101.544 113.428,-104.305"/>
</g>
<!-- test/Ellipse.test.js -->
<g id="node5" class="node"><title>test/Ellipse.test.js</title>
<g id="a_node5"><a xlink:href="test/Ellipse.test.js" xlink:title="Ellipse.test.js">
<path fill="#ffffcc" stroke="black" d="M82,-34C82,-34 22,-34 22,-34 19,-34 16,-31 16,-28 16,-28 16,-22 16,-22 16,-19 19,-16 22,-16 22,-16 82,-16 82,-16 85,-16 88,-19 88,-22 88,-22 88,-28 88,-28 88,-31 85,-34 82,-34"/>
<text text-anchor="middle" x="52" y="-22.8" font-family="Helvetica,sans-Serif" font-size="9.00">Ellipse.test.js</text>
</a>
</g>
</g>
<!-- test/Ellipse.test.js&#45;&gt;src/Ellipse.js -->
<g id="edge4" class="edge"><title>test/Ellipse.test.js&#45;&gt;src/Ellipse.js</title>
<path fill="none" stroke="#999999" d="M82.6447,-34.0176C87.215,-35.783 91.8054,-37.7842 96,-40 129.681,-57.7923 164.426,-86.0079 183.257,-102.284"/>
<polygon fill="#999999" stroke="#999999" points="182.33,-103.797 187.249,-105.762 184.629,-101.158 182.33,-103.797"/>
</g>
</g>
</svg>
